<?xml version="1.0" encoding="UTF-8"?>
<svg xmlns="http://www.w3.org/2000/svg" height="16px" viewBox="0 0 16 16" width="16px"><g fill="#222222"><path d="m 12 1 c 1.664062 0 3 1.339844 3 3 v 6 c 0 1.660156 -1.335938 3 -3 3 h -8 c -1.660156 0 -3 -1.339844 -3 -3 v -6 c 0 -1.660156 1.339844 -3 3 -3 z m 0 2 h -8 c -0.554688 0 -1 0.445312 -1 1 v 6 c 0 0.554688 0.445312 1 1 1 h 8 c 0.554688 0 1 -0.445312 1 -1 v -6 c 0 -0.554688 -0.445312 -1 -1 -1 z m 0 0"/><path d="m 8 14 c -5 0 -5 1 -5 1 c 0 1 1 1 1 1 h 8 c 1 0 1 -1 1 -1 s 0 -1 -5 -1 z m 0 0"/><path d="m 6 4 c -0.550781 0 -1 0.449219 -1 1 s 0.449219 1 1 1 s 1 -0.449219 1 -1 s -0.449219 -1 -1 -1 z m 4 0 c -0.550781 0 -1 0.449219 -1 1 s 0.449219 1 1 1 s 1 -0.449219 1 -1 s -0.449219 -1 -1 -1 z m -2 3 c -1.429688 0 -2.75 0.761719 -3.464844 2 c -0.136718 0.238281 -0.054687 0.546875 0.183594 0.683594 c 0.238281 0.136718 0.546875 0.054687 0.683594 -0.183594 c 0.535156 -0.929688 1.523437 -1.5 2.597656 -1.5 s 2.0625 0.570312 2.597656 1.5 c 0.136719 0.238281 0.445313 0.320312 0.683594 0.183594 c 0.238281 -0.136719 0.320312 -0.445313 0.183594 -0.683594 c -0.714844 -1.238281 -2.035156 -2 -3.464844 -2 z m 0 0"/></g><path d="m -17.769532 -13.003906 l -0.230468 3.882812 c -0.03125 0.550782 0.164062 1.089844 0.542968 1.492188 c 0.378907 0.402344 0.90625 0.628906 1.457032 0.628906 c 1.117187 0 2.039062 -0.878906 2.089843 -2 l 0.042969 -1 h 3.734375 l 0.042969 1 c 0.050781 1.121094 0.972656 2 2.089844 2 c 0.59375 -0.0625 1.132812 -0.367188 1.5 -0.835938 c 0.367187 -0.472656 0.523437 -1.070312 0.4375 -1.664062 l -0.113282 -3 c -0.050781 -1.394531 -1.195312 -2.5 -2.589843 -2.5 h -6.882813 c -1.125 0 -2.050781 0.875 -2.121094 1.996094 z m 0 0" fill="none" stroke="#241f31" stroke-linecap="round" stroke-width="2"/><path d="m -5 -6 c -0.5 0.742188 -1.585938 1.5 -3 1.5 c -0.851563 0 -1.515625 -0.179688 -2.035157 -0.421875 m -8.964843 -1.078125 c 0.5 0.742188 1.585937 1.5 3 1.5 c 0.851562 0 1.511718 -0.179688 2.035156 -0.421875 m 8.957031 -13.578125 c -0.5 -0.355469 -1.761719 -1 -3 -1 h -1 m 4 3.5 c -0.5 -0.742188 -1.585937 -1.5 -3 -1.5 h -2.5 m -8.492187 -1 c 0.5 -0.355469 1.761718 -1 3 -1 h 1 m -4 3.5 c 0.5 -0.742188 1.585937 -1.5 3 -1.5 h 2.5" fill="none" stroke="#241f31" stroke-linecap="round"/></svg>
